<svg xmlns="http://www.w3.org/2000/svg" viewBox="0 0 32 32">
  <rect width="32" height="32" rx="8" fill="#faf6f1"/>
  <!-- prato -->
  <ellipse cx="16" cy="26.5" rx="12" ry="2.5" fill="#ddd3c8"/>
  <ellipse cx="16" cy="25.8" rx="9.5" ry="1.5" fill="#f0e8de"/>
  <!-- andar inferior -->
  <path fill="#cfa07a" d="M6 20.5c0-1.1 1-2 2.2-2h15.6c1.2 0 2.2.9 2.2 2v2.5H6v-2.5z"/>
  <path fill="#4a3228" d="M7.5 18.5c0-1.4 1.2-2.5 2.7-2.5h11.6c1.5 0 2.7 1.1 2.7 2.5v1.5H7.5v-1.5z"/>
  <!-- andar superior -->
  <rect x="10.5" y="12" width="11" height="6.5" rx="1.3" fill="#e5b896"/>
  <path fill="#4a3228" d="M10.5 12h11v2.5c-1.3.45-2.8.65-5.5.65S11.8 14.95 10.5 14.5V12z"/>
  <!-- cereja + cabinho -->
  <path stroke="#6b5344" stroke-width="0.9" fill="none" stroke-linecap="round" d="M16 8.2c.4-1.2 1.4-2 2.2-2.3"/>
  <circle cx="16" cy="9.5" r="2.4" fill="#c45c3a"/>
  <circle cx="15.1" cy="8.9" r="0.7" fill="#fff" opacity="0.35"/>
</svg>
